Coordinates
version=1
nRows=12
nColumns=24
inDegrees=yes

Units are S.I. units (second, meters, Newtons, ...)
Angles are in degrees.

endheader
time	pelvis_tilt	pelvis_list	pelvis_rotation	pelvis_tx	pelvis_ty	pelvis_tz	hip_flexion_r	hip_adduction_r	hip_rotation_r	knee_angle_r	ankle_angle_r	subtalar_angle_r	mtp_angle_r	hip_flexion_l	hip_adduction_l	hip_rotation_l	knee_angle_l	ankle_angle_l	subtalar_angle_l	mtp_angle_l	lumbar_extension	lumbar_bending	lumbar_rotation
      0.84133333	     -1.27317371	     -1.99172802	     -1.64018275	     -0.39920784	      0.99525254	      0.31892634	     13.52719663	      5.03932828	      0.81997177	    -21.70544982	     13.78560778	     -9.13312969	     -4.92159898	     14.72605392	     -2.49652582	     -3.70034176	    -71.88233659	    -11.09450793	    -13.97714409	     -1.45363870	    -10.73604036	     10.17469074	     -0.71123370
      0.84550000	     -1.23578840	     -1.84314309	     -1.62242561	     -0.39432125	      0.99636246	      0.31935228	     12.96305324	      4.89591001	      0.84029178	    -21.25824626	     13.81305184	     -9.10106982	     -4.91977824	     15.32346178	     -2.39531935	     -3.82617931	    -71.85425961	    -10.44738535	    -14.15955567	     -1.44964112	    -10.82229755	      9.93251817	     -0.54139260
      0.84966667	     -1.19040119	     -1.70816373	     -1.62825879	     -0.38938997	      0.99746284	      0.31984191	     12.36475413	      4.77945854	      0.91893043	    -20.76189034	     13.85494776	     -9.11029080	     -4.91531153	     15.89037765	     -2.32576406	     -3.97950224	    -71.76301361	     -9.80117699	    -14.23220149	     -1.46288540	    -10.90901255	      9.68742168	     -0.21310715
      0.85383333	     -1.14598083	     -1.56159764	     -1.63677029	     -0.38449127	      0.99853564	      0.32030716	     11.77552671	      4.64626027	      0.98340018	    -20.27602284	     13.87560126	     -9.11367971	     -4.91058110	     16.45135945	     -2.23304852	     -4.12873841	    -71.61831351	     -9.16947676	    -14.34177145	     -1.48665824	    -10.99880669	      9.43620678	      0.04932523
      0.85800000	     -1.14037304	     -1.38919372	     -1.64921467	     -0.37955968	      0.99953603	      0.32072936	     11.23783619	      4.47721454	      1.01292817	    -19.81434201	     13.90721626	     -9.07373339	     -4.90857942	     17.03646563	     -2.10223091	     -4.27920081	    -71.40326139	     -8.58236788	    -14.51078611	     -1.49214427	    -11.01005132	      9.20597259	      0.16366326
      0.86216667	     -1.05209822	     -1.23512719	     -1.67618292	     -0.37465675	      1.00061709	      0.32123002	     10.59033868	      4.33797881	      1.10146490	    -19.30505664	     13.94116641	     -9.06462880	     -4.90218677	     17.51985740	     -2.00592082	     -4.44075629	    -71.14367565	     -7.93644389	    -14.46363541	     -1.53242125	    -11.18039854	      8.90868921	      0.55116332
      0.86633333	     -0.99544081	     -1.05879415	     -1.70344014	     -0.36972819	      1.00164965	      0.32168007	      9.98272547	      4.16667183	      1.15931296	    -18.80855147	     13.95719591	     -9.04362849	     -4.89702270	     18.01893868	     -1.87194315	     -4.59778732	    -70.81281915	     -7.33235059	    -14.48741355	     -1.57420216	    -11.27861192	      8.62580724	      0.80307603
      0.87050000	     -0.92076580	     -0.87856393	     -1.73249950	     -0.36480905	      1.00265828	      0.32211952	      9.35733819	      3.98660743	      1.20454664	    -18.31324405	     13.99124576	     -8.99003013	     -4.89120857	     18.48676071	     -1.73065782	     -4.75265619	    -70.43048431	     -6.73424486	    -14.48360730	     -1.61750437	    -11.39525845	      8.34400523	      1.04194180
      0.87466667	     -0.88002961	     -0.69538215	     -1.76642919	     -0.35988724	      1.00357896	      0.32255616	      8.77382587	      3.80337263	      1.24943358	    -17.82920609	     14.02667665	     -8.92841415	     -4.88522749	     18.97899344	     -1.58352833	     -4.90269713	    -69.99895626	     -6.13589085	    -14.44107697	     -1.66770786	    -11.47674609	      8.05975203	      1.29523242
      0.87883333	     -0.82825180	     -0.51372057	     -1.79706752	     -0.35496617	      1.00446973	      0.32297567	      8.17854148	      3.61657032	      1.27511901	    -17.34479527	     14.06316992	     -8.86400078	     -4.88062061	     19.44674410	     -1.43532723	     -5.04585398	    -69.51745434	     -5.54301474	    -14.35574439	     -1.71030672	    -11.56318573	      7.77723297	      1.51463286
      0.88300000	     -0.77901682	     -0.32781210	     -1.82774494	     -0.35004823	      1.00531693	      0.32338110	      7.58881019	      3.42239964	      1.29155277	    -16.86427906	     14.10353535	     -8.78009282	     -4.87666551	     19.90334684	     -1.27655476	     -5.18063579	    -68.98333212	     -4.96199172	    -14.24668791	     -1.74988269	    -11.65056523	      7.49246335	      1.73092880
      0.88716667	     -0.71336960	     -0.13673012	     -1.85934813	     -0.34512533	      1.00615674	      0.32377270	      6.98174768	      3.21823124	      1.29601192	    -16.38330904	     14.14722545	     -8.67954568	     -4.87306257	     20.32475604	     -1.10795496	     -5.31015791	    -68.39128937	     -4.38541246	    -14.10356715	     -1.78683055	    -11.75592542	      7.20389839	      1.94101447
